<?xml version="1.0" encoding="utf-8"?>
<!-- Generator: Adobe Illustrator 16.0.0, SVG Export Plug-In . SVG Version: 6.00 Build 0)  -->
<!DOCTYPE svg PUBLIC "-//W3C//DTD SVG 1.1//EN" "http://www.w3.org/Graphics/SVG/1.1/DTD/svg11.dtd">
<svg version="1.1" id="Layer_1" xmlns="http://www.w3.org/2000/svg" xmlns:xlink="http://www.w3.org/1999/xlink" x="0px" y="0px"
	 width="64.367px" height="64.367px" viewBox="0 0 64.367 64.367" enable-background="new 0 0 64.367 64.367" xml:space="preserve">
<g>
	<path fill="#039BE5" d="M32.183,18.863c-0.69,0-1.25-0.56-1.25-1.25V1.25c0-0.69,0.56-1.25,1.25-1.25s1.25,0.56,1.25,1.25v16.363
		C33.434,18.304,32.873,18.863,32.183,18.863z"/>
	<path fill="#039BE5" d="M32.183,64.367c-0.69,0-1.25-0.561-1.25-1.25V46.753c0-0.69,0.56-1.25,1.25-1.25s1.25,0.56,1.25,1.25
		v16.364C33.434,63.807,32.873,64.367,32.183,64.367z"/>
	<path fill="#039BE5" d="M63.117,33.434H46.753c-0.69,0-1.25-0.561-1.25-1.25s0.56-1.25,1.25-1.25h16.364
		c0.689,0,1.25,0.56,1.25,1.25S63.809,33.434,63.117,33.434z"/>
	<g>
		<line fill="none" x1="17.613" y1="32.183" x2="1.25" y2="32.183"/>
		<path fill="#1DE9B6" d="M17.613,33.434H1.25c-0.69,0-1.25-0.561-1.25-1.25s0.56-1.25,1.25-1.25h16.363c0.69,0,1.25,0.56,1.25,1.25
			S18.304,33.434,17.613,33.434z"/>
	</g>
	<path fill="#039BE5" d="M42.486,23.131c-0.32,0-0.641-0.122-0.885-0.366c-0.488-0.488-0.488-1.279,0-1.768l11.57-11.571
		c0.488-0.488,1.279-0.488,1.768,0c0.488,0.488,0.488,1.279,0,1.768L43.37,22.765C43.126,23.009,42.807,23.131,42.486,23.131z"/>
	<g>
		<line fill="none" x1="21.88" y1="42.486" x2="10.31" y2="54.057"/>
		<path fill="#1DE9B6" d="M10.31,55.307c-0.32,0-0.64-0.123-0.884-0.367c-0.488-0.487-0.488-1.278,0-1.768l11.57-11.57
			c0.488-0.487,1.279-0.487,1.768,0c0.489,0.488,0.488,1.279,0,1.769l-11.57,11.569C10.949,55.184,10.63,55.307,10.31,55.307z"/>
	</g>
	<path fill="#039BE5" d="M54.057,55.307c-0.32,0-0.64-0.123-0.884-0.367L41.604,43.37c-0.488-0.488-0.488-1.279,0-1.769
		c0.487-0.488,1.278-0.487,1.768,0l11.57,11.57c0.488,0.488,0.488,1.279,0,1.768C54.695,55.184,54.377,55.307,54.057,55.307z"/>
	<g>
		<line fill="none" x1="21.88" y1="21.881" x2="10.31" y2="10.31"/>
		<path fill="#1DE9B6" d="M21.88,23.131c-0.32,0-0.64-0.122-0.884-0.366L9.426,11.194c-0.488-0.488-0.488-1.28,0-1.768
			c0.488-0.488,1.279-0.488,1.768,0l11.57,11.571c0.488,0.488,0.488,1.28,0,1.768C22.52,23.009,22.2,23.131,21.88,23.131z"/>
	</g>
</g>
</svg>
