<?xml version="1.0" encoding="utf-8"?>
<!-- Generator: Adobe Illustrator 16.0.0, SVG Export Plug-In . SVG Version: 6.00 Build 0)  -->
<!DOCTYPE svg PUBLIC "-//W3C//DTD SVG 1.1//EN" "http://www.w3.org/Graphics/SVG/1.1/DTD/svg11.dtd">
<svg version="1.1" id="Layer_1" xmlns="http://www.w3.org/2000/svg" xmlns:xlink="http://www.w3.org/1999/xlink" x="0px" y="0px"
	 width="52.43px" height="72.796px" viewBox="0 0 52.43 72.796" enable-background="new 0 0 52.43 72.796" xml:space="preserve">
<g>
	<g>
		<line fill="none" x1="26.214" y1="36.686" x2="26.214" y2="72.796"/>
		<rect x="24.964" y="36.686" fill="#1DE9B6" width="2.5" height="36.11"/>
	</g>
	<g>
		<circle fill="#FFFFFF" cx="26.215" cy="26.214" r="4.904"/>
		<path fill="#1DE9B6" d="M26.214,32.369c-3.394,0-6.153-2.761-6.153-6.154c0-3.393,2.761-6.154,6.153-6.154
			c3.394,0,6.155,2.761,6.155,6.154C32.369,29.608,29.607,32.369,26.214,32.369z M26.214,22.561c-2.015,0-3.653,1.639-3.653,3.654
			c0,2.015,1.64,3.654,3.653,3.654c2.016,0,3.655-1.639,3.655-3.654C29.869,24.2,28.229,22.561,26.214,22.561z"/>
	</g>
	<path fill="#039BE5" d="M20.411,41.712c-0.157,0-0.317-0.029-0.473-0.092c-6.29-2.564-10.354-8.613-10.354-15.407
		c0-9.169,7.46-16.629,16.629-16.629c9.17,0,16.63,7.46,16.63,16.629c0,6.222-3.428,11.875-8.946,14.752
		c-0.613,0.318-1.368,0.082-1.687-0.529c-0.319-0.611-0.082-1.367,0.53-1.688c4.688-2.445,7.603-7.25,7.603-12.537
		c0-7.791-6.339-14.129-14.13-14.129s-14.129,6.338-14.129,14.129c0,5.773,3.453,10.912,8.798,13.091
		c0.64,0.26,0.946,0.99,0.686,1.629C21.371,41.419,20.903,41.712,20.411,41.712z"/>
	<path fill="#039BE5" d="M17.123,50.723c-0.151,0-0.307-0.028-0.455-0.086C6.542,46.675,0,37.087,0,26.214
		C0,11.759,11.759,0,26.213,0C40.669,0,52.43,11.759,52.43,26.214c0,10.349-6.111,19.754-15.57,23.963
		c-0.631,0.279-1.368-0.004-1.648-0.635c-0.281-0.631,0.003-1.369,0.634-1.649C44.4,44.085,49.93,35.576,49.93,26.214
		C49.93,13.138,39.29,2.5,26.213,2.5C13.138,2.5,2.5,13.138,2.5,26.214c0,9.838,5.919,18.511,15.078,22.095
		c0.644,0.251,0.961,0.978,0.709,1.62C18.094,50.421,17.622,50.723,17.123,50.723z"/>
</g>
</svg>
